<svg width="28" height="28" viewBox="0 0 28 28" fill="none" xmlns="http://www.w3.org/2000/svg">
<path d="M17.4534 8.66667L14 12.12L10.5467 8.66667L8.66669 10.5467L12.12 14L8.66669 17.4533L10.5467 19.3333L14 15.88L17.4534 19.3333L19.3334 17.4533L15.88 14L19.3334 10.5467L17.4534 8.66667ZM14 0.666672C6.62669 0.666672 0.666687 6.62667 0.666687 14C0.666687 21.3733 6.62669 27.3333 14 27.3333C21.3734 27.3333 27.3334 21.3733 27.3334 14C27.3334 6.62667 21.3734 0.666672 14 0.666672ZM14 24.6667C8.12002 24.6667 3.33335 19.88 3.33335 14C3.33335 8.12001 8.12002 3.33334 14 3.33334C19.88 3.33334 24.6667 8.12001 24.6667 14C24.6667 19.88 19.88 24.6667 14 24.6667Z" fill="#323232"/>
</svg>
